<svg width="217" height="217" viewBox="0 0 217 217" fill="none" xmlns="http://www.w3.org/2000/svg">
<path d="M67.1315 94.3026L57.9011 67.6902C63.249 60.5805 70.2133 54.7841 78.2956 50.8594L86.816 94.3177H67.1315V94.3026ZM79.7308 130.666L91.3028 164.041C94.3846 164.856 97.5571 165.43 100.82 165.702L93.9465 130.666H79.7308Z" fill="white"/>
<path d="M125.337 94.3177L134.205 50.8594C142.272 54.7841 149.252 60.5805 154.6 67.6902L145.127 94.3026H125.337V94.3177ZM117.92 130.681L110.774 165.717C114.037 165.445 117.21 164.856 120.292 164.056L132.166 130.681H117.92Z" fill="white"/>
<path d="M191.249 117.549C191.083 117.278 190.871 117.051 190.599 116.9C190.328 116.734 190.01 116.659 189.663 116.659C189.315 116.659 189.013 116.734 188.726 116.9C188.439 117.066 188.228 117.278 188.061 117.565C187.895 117.851 187.82 118.153 187.82 118.485C187.82 118.817 187.895 119.134 188.061 119.406C188.228 119.693 188.439 119.904 188.726 120.07C188.998 120.236 189.315 120.312 189.648 120.312C189.98 120.312 190.297 120.236 190.569 120.07C190.856 119.904 191.068 119.693 191.234 119.406C191.4 119.119 191.476 118.817 191.476 118.47C191.476 118.123 191.4 117.836 191.249 117.549ZM190.932 119.24C190.796 119.467 190.63 119.648 190.403 119.783C190.176 119.919 189.92 119.98 189.648 119.98C189.376 119.98 189.119 119.919 188.892 119.783C188.666 119.648 188.5 119.467 188.364 119.24C188.243 119.014 188.167 118.757 188.167 118.485C188.167 118.214 188.228 117.957 188.364 117.731C188.484 117.504 188.666 117.323 188.892 117.187C189.119 117.051 189.376 116.991 189.648 116.991C189.92 116.991 190.176 117.051 190.403 117.187C190.63 117.323 190.811 117.489 190.932 117.715C191.053 117.942 191.128 118.199 191.128 118.47C191.128 118.757 191.068 119.014 190.932 119.24Z" fill="white"/>
<path d="M190.449 118.56C190.509 118.469 190.539 118.349 190.539 118.213C190.539 118.017 190.464 117.851 190.328 117.73C190.192 117.609 189.98 117.549 189.739 117.549H188.938V119.405H189.437V118.877H189.754H189.769L190.116 119.405H190.615L190.207 118.786C190.313 118.741 190.388 118.666 190.449 118.56ZM189.965 118.439C189.905 118.485 189.814 118.515 189.709 118.515H189.422V117.941H189.709C189.814 117.941 189.905 117.971 189.965 118.017C190.026 118.062 190.056 118.137 190.056 118.228C190.056 118.319 190.026 118.379 189.965 118.439Z" fill="white"/>
<path d="M104.973 119.465C103.794 118.801 102.873 117.881 102.193 116.703C101.513 115.526 101.181 114.197 101.181 112.718C101.181 111.239 101.513 109.91 102.193 108.733C102.873 107.556 103.794 106.635 104.973 105.986C106.151 105.337 107.465 105.005 108.931 105.005C110.396 105.005 111.725 105.337 112.889 105.986C114.067 106.635 114.988 107.556 115.653 108.733C116.318 109.91 116.65 111.239 116.65 112.718C116.65 114.197 116.318 115.526 115.653 116.703C114.988 117.881 114.067 118.801 112.889 119.465C111.71 120.13 110.396 120.462 108.931 120.462C107.465 120.462 106.151 120.13 104.973 119.465ZM111.846 117.911C112.707 117.413 113.372 116.718 113.855 115.812C114.339 114.907 114.581 113.88 114.581 112.718C114.581 111.556 114.339 110.529 113.855 109.624C113.372 108.718 112.707 108.024 111.846 107.525C110.985 107.027 110.018 106.786 108.946 106.786C107.858 106.786 106.891 107.027 106.03 107.525C105.169 108.024 104.489 108.718 104.006 109.624C103.507 110.529 103.265 111.556 103.265 112.718C103.265 113.88 103.507 114.907 104.006 115.812C104.504 116.718 105.169 117.413 106.03 117.911C106.891 118.409 107.858 118.65 108.946 118.65C110.018 118.635 110.985 118.394 111.846 117.911Z" fill="white"/>
<path d="M57.705 98.9367V107.284C57.2216 106.786 56.6777 106.348 56.0583 106.001C54.9102 105.352 53.611 105.035 52.1909 105.035C52.1607 105.035 52.1456 105.035 52.1154 105.035C52.055 105.035 51.9945 105.02 51.9341 105.02C50.514 105.02 49.2299 105.337 48.0667 105.986C46.9186 106.635 46.0121 107.541 45.3625 108.703C44.7129 109.88 44.3806 111.209 44.3806 112.703C44.3806 114.198 44.7129 115.541 45.3625 116.703C46.0121 117.881 46.9186 118.787 48.0667 119.436C49.2148 120.085 50.514 120.417 51.9341 120.417C51.9945 120.417 52.055 120.402 52.1154 120.402C52.1456 120.402 52.1607 120.402 52.1909 120.402C53.611 120.402 54.8951 120.07 56.0583 119.42C57.2064 118.771 58.1129 117.851 58.7625 116.688C59.3819 115.571 59.6991 114.318 59.7293 112.899L59.7444 112.869V98.8763H57.705V98.9367ZM52.1154 118.651C51.0428 118.651 50.0759 118.409 49.2148 117.911C48.3537 117.428 47.689 116.719 47.1905 115.828C46.692 114.937 46.4502 113.896 46.4502 112.749C46.4502 111.601 46.692 110.575 47.1905 109.669C47.6739 108.763 48.3537 108.069 49.2148 107.586C50.0759 107.103 51.0428 106.846 52.1154 106.846H52.1305C53.1729 106.862 54.0944 107.103 54.9253 107.571C55.7864 108.054 56.4511 108.763 56.9496 109.654C57.4331 110.56 57.6899 111.586 57.6899 112.733C57.6899 113.881 57.4482 114.907 56.9496 115.813C56.4662 116.719 55.7864 117.413 54.9253 117.896C54.0944 118.394 53.1578 118.62 52.1154 118.651Z" fill="white"/>
<path d="M66.7075 118.651C65.4838 117.428 64.8795 115.677 64.8795 113.413V105.382H66.9492V113.352C66.9492 115.119 67.3571 116.447 68.188 117.353C69.0189 118.258 70.2123 118.711 71.7986 118.711C73.3697 118.711 74.5783 118.258 75.4243 117.353C76.2551 116.447 76.6781 115.119 76.6781 113.352V105.382H78.7025V113.413C78.7025 115.677 78.0982 117.428 76.8896 118.651C75.6811 119.873 73.9891 120.492 71.8137 120.492C69.6232 120.492 67.9312 119.873 66.7075 118.651Z" fill="white"/>
<path d="M86.6949 119.482C85.5165 118.832 84.5799 117.912 83.9152 116.734C83.2353 115.557 82.903 114.229 82.903 112.749C82.903 111.27 83.2353 109.942 83.9152 108.779C84.595 107.602 85.5165 106.696 86.6949 106.047C87.8732 105.398 89.2177 105.066 90.7133 105.066C92.0276 105.066 93.1909 105.322 94.2182 105.836C95.2454 106.349 96.0612 107.089 96.6504 108.07L95.1246 109.111C94.626 108.357 93.9915 107.798 93.2211 107.421C92.4506 107.043 91.6197 106.862 90.7133 106.862C89.6105 106.862 88.6285 107.104 87.7523 107.602C86.8761 108.085 86.1963 108.794 85.6978 109.685C85.2144 110.591 84.9575 111.617 84.9575 112.764C84.9575 113.942 85.1993 114.968 85.6978 115.859C86.1812 116.749 86.8761 117.444 87.7523 117.927C88.6285 118.41 89.6105 118.666 90.7133 118.666C91.6197 118.666 92.4506 118.485 93.2211 118.123C93.9915 117.761 94.626 117.202 95.1246 116.447L96.6504 117.489C96.0612 118.47 95.2303 119.21 94.203 119.723C93.1607 120.236 91.9974 120.493 90.7133 120.493C89.2177 120.463 87.8732 120.131 86.6949 119.482Z" fill="white"/>
<path d="M137.258 112.371C137.258 110.952 136.926 109.684 136.261 108.567C135.596 107.45 134.69 106.589 133.542 105.97C132.394 105.351 131.094 105.05 129.644 105.05C129.584 105.05 129.523 105.05 129.478 105.065C129.417 105.065 129.357 105.05 129.312 105.05C127.877 105.05 126.577 105.351 125.414 105.97C124.266 106.589 123.36 107.45 122.695 108.567C122.03 109.684 121.698 110.952 121.698 112.371C121.698 113.79 122.03 115.058 122.695 116.19C123.36 117.307 124.266 118.182 125.429 118.816C126.592 119.435 127.892 119.752 129.312 119.752C129.372 119.752 129.433 119.737 129.478 119.737C129.538 119.737 129.599 119.752 129.644 119.752C131.064 119.752 132.363 119.435 133.527 118.816C134.161 118.469 134.72 118.046 135.219 117.548V118.741C135.219 120.628 134.765 122.016 133.859 122.907C132.952 123.798 131.548 124.25 129.614 124.25C128.466 124.25 127.363 124.069 126.305 123.707C125.263 123.345 124.372 122.831 123.631 122.182L122.589 123.737C123.375 124.462 124.402 125.035 125.656 125.458C126.91 125.866 128.239 126.077 129.644 126.077C132.182 126.077 134.086 125.458 135.339 124.22C136.593 122.982 137.228 121.08 137.228 118.499V112.703L137.213 112.657C137.258 112.552 137.258 112.461 137.258 112.371ZM126.547 117.216C125.671 116.748 124.991 116.084 124.508 115.239C124.024 114.393 123.767 113.427 123.767 112.356C123.767 111.284 124.009 110.318 124.508 109.472C124.991 108.627 125.686 107.978 126.547 107.51C127.408 107.057 128.39 106.831 129.478 106.816C130.566 106.816 131.532 107.042 132.409 107.51C133.285 107.978 133.965 108.627 134.448 109.472C134.932 110.318 135.188 111.284 135.188 112.356C135.188 113.427 134.947 114.393 134.448 115.239C133.965 116.084 133.27 116.748 132.409 117.216C131.548 117.684 130.566 117.91 129.478 117.926C128.39 117.926 127.423 117.684 126.547 117.216Z" fill="white"/>
<path d="M184.739 106.695C183.652 105.593 182.156 105.05 180.253 105.05C178.908 105.05 177.715 105.336 176.657 105.895C175.615 106.469 174.814 107.238 174.255 108.25C173.787 107.193 173.092 106.393 172.17 105.865C171.234 105.321 170.131 105.065 168.862 105.065C168.816 105.065 168.771 105.065 168.726 105.065C167.396 105.065 166.233 105.351 165.145 105.819C164.028 106.287 163.091 107.057 162.29 108.401C161.414 109.88 161.339 111.118 161.339 113.186V120.326H163.378V112.371C163.378 110.665 163.831 109.321 164.753 108.355C165.659 107.389 166.898 106.906 168.454 106.906C168.545 106.906 168.635 106.921 168.726 106.921C169.995 106.967 170.992 107.374 171.702 108.144C172.457 108.974 172.835 110.167 172.835 111.752V120.341H174.874V112.386C174.874 110.68 175.328 109.337 176.234 108.37C177.14 107.404 178.379 106.921 179.95 106.921C181.34 106.921 182.413 107.329 183.168 108.159C183.924 108.989 184.301 110.182 184.301 111.767V120.356H186.341V111.571C186.371 109.397 185.827 107.782 184.739 106.695Z" fill="white"/>
<path d="M154.207 105.382V113.352C154.207 115.118 153.784 116.447 152.953 117.352C152.122 118.258 150.913 118.711 149.327 118.711C147.756 118.711 146.548 118.258 145.717 117.352C144.886 116.447 144.478 115.118 144.478 113.352V105.382H142.408V113.413C142.408 115.677 143.012 117.428 144.236 118.651C145.248 119.677 146.608 120.266 148.285 120.432V125.851H150.324V120.432C152.016 120.266 153.376 119.677 154.388 118.635C155.597 117.413 156.201 115.662 156.201 113.398V105.367H154.207V105.382Z" fill="white"/>
<path d="M40.4818 113.397H27.671C27.7919 114.982 28.3962 116.265 29.499 117.246C30.6018 118.227 32.0067 118.71 33.6836 118.71C34.6354 118.71 35.5116 118.544 36.2971 118.197C37.0978 117.865 37.7776 117.352 38.3668 116.703L39.53 118.046C38.8502 118.861 38.0042 119.48 36.9769 119.903C35.9648 120.325 34.8317 120.537 33.6081 120.537C32.0369 120.537 30.6471 120.205 29.4234 119.54C28.2149 118.876 27.2631 117.94 26.5833 116.763C25.9035 115.586 25.5711 114.242 25.5711 112.748C25.5711 111.253 25.8884 109.91 26.5531 108.732C27.2027 107.555 28.094 106.634 29.227 105.97C30.3601 105.306 31.6442 104.974 33.0491 104.974C34.4692 104.974 35.7382 105.306 36.8561 105.97C37.974 106.634 38.8653 107.54 39.4998 108.717C40.1343 109.895 40.4667 111.238 40.4667 112.748L40.4818 113.397ZM29.3781 108.174C28.381 109.11 27.807 110.348 27.671 111.857H38.533C38.397 110.348 37.8229 109.125 36.8259 108.174C35.8288 107.238 34.5749 106.77 33.0793 106.77C31.6139 106.77 30.3752 107.238 29.3781 108.174Z" fill="white"/>
</svg>
