<svg xmlns="http://www.w3.org/2000/svg" width="16" height="16" viewBox="0 0 16 16"><defs><style>.a{fill:none;}.b{fill:#00b2e3;}</style></defs><g transform="translate(22.061 3.396)"><rect class="a" width="16" height="16" transform="translate(-22.061 -3.396)"/><g transform="translate(-22.062 -46.616)"><g transform="translate(6.223 50.02)"><path class="b" d="M208.264,202.427a.712.712,0,0,0-1.006,0l-2.029,2.029a1.357,1.357,0,1,0,1.006,1.006l2.029-2.029A.711.711,0,0,0,208.264,202.427Z" transform="translate(-203.561 -202.218)"/></g><g transform="translate(0.001 45.22)"><g transform="translate(0 0)"><path class="b" d="M13.361,47.509A7.829,7.829,0,0,0,1.318,57.4.712.712,0,1,0,2.5,56.607a6.359,6.359,0,0,1-1.037-2.831h.669a.712.712,0,0,0,0-1.423H1.461a6.409,6.409,0,0,1,1.351-3.3l.484.484A.712.712,0,0,0,4.3,48.535l-.486-.486A6.378,6.378,0,0,1,7.144,46.68v.672a.712.712,0,1,0,1.423,0v-.666a6.374,6.374,0,0,1,3.267,1.363l-.486.486a.712.712,0,0,0,1.007,1.006l.484-.484a6.407,6.407,0,0,1,1.352,3.295h-.671a.712.712,0,0,0,0,1.423h.669a6.358,6.358,0,0,1-1.037,2.83.712.712,0,1,0,1.182.792A7.843,7.843,0,0,0,13.361,47.509Z" transform="translate(-0.001 -45.22)"/></g></g><g transform="translate(3.907 56.684)"><path class="b" d="M134.918,420.217H128.5a.712.712,0,1,0,0,1.423h6.415a.712.712,0,1,0,0-1.423Z" transform="translate(-127.791 -420.217)"/></g></g></g></svg>