<svg xmlns="http://www.w3.org/2000/svg" width="19.806" height="19.806" viewBox="0 0 19.806 19.806"><defs><style>.a{fill:#167ee6;}.b{fill:#12b347;}.c{fill:#0f993e;}.d{fill:#ffd500;}.e{fill:#ff4b26;}.f{fill:#d93f21;}</style></defs><path class="a" d="M275.855,211.479h-8.079a.646.646,0,0,0-.646.646v2.581a.646.646,0,0,0,.646.646h4.549a6.073,6.073,0,0,1-2.614,3.063l1.94,3.358a9.71,9.71,0,0,0,4.951-8.492,6.546,6.546,0,0,0-.111-1.268A.649.649,0,0,0,275.855,211.479Z" transform="translate(-256.798 -203.298)"/><path class="b" d="M42.983,336.863a6.027,6.027,0,0,1-5.214-3.016l-3.358,1.935a9.9,9.9,0,0,0,13.523,3.63v0l-1.94-3.358A5.983,5.983,0,0,1,42.983,336.863Z" transform="translate(-33.08 -320.933)"/><path class="c" d="M260.951,394.142v0l-1.94-3.358a5.983,5.983,0,0,1-3.012.814v3.875A9.886,9.886,0,0,0,260.951,394.142Z" transform="translate(-246.097 -375.662)"/><path class="d" d="M3.875,133.066a5.983,5.983,0,0,1,.814-3.011l-3.358-1.935a9.858,9.858,0,0,0,0,9.894l3.358-1.935A5.983,5.983,0,0,1,3.875,133.066Z" transform="translate(0 -123.163)"/><path class="e" d="M42.983,3.875A6,6,0,0,1,46.81,5.249a.643.643,0,0,0,.866-.039L49.5,3.381a.651.651,0,0,0-.037-.952A9.881,9.881,0,0,0,34.411,4.956l3.358,1.935A6.027,6.027,0,0,1,42.983,3.875Z" transform="translate(-33.08)"/><path class="f" d="M259.827,5.249a.643.643,0,0,0,.866-.039l1.829-1.829a.651.651,0,0,0-.037-.952A9.873,9.873,0,0,0,256,0V3.875A6,6,0,0,1,259.827,5.249Z" transform="translate(-246.097 0)"/></svg>