<svg xmlns="http://www.w3.org/2000/svg" width="174.215" height="174.201" viewBox="0 0 174.215 174.201"><defs><style>.a{opacity:0.8;}.b{fill:#f6f6f6;stroke:#44bde8;stroke-width:1.5px;}</style></defs><g class="a" transform="translate(-15.227 -15.241)"><path class="b" d="M287.443,90.877c-.014-.065-.025-.126-.043-.187l.04.018Z" transform="translate(-173.76 -47.819)"/><ellipse class="b" cx="2.808" cy="2.247" rx="2.808" ry="2.247" transform="translate(76.656 41.836)"/><ellipse class="b" cx="3.37" cy="2.247" rx="3.37" ry="2.247" transform="translate(84.519 41.836)"/><path class="b" d="M184.707,153.222l-22.857-33.25a11.393,11.393,0,0,0,3.814-8.57,45.917,45.917,0,0,0-6.548-23.648L148.2,69.57l-2.774-11.1a2.883,2.883,0,0,0-1.5-1.878l-5.756-2.878a2.909,2.909,0,0,0-1.288-.3H134V47.66a2.874,2.874,0,0,0-1.687-2.619l-15.607-7.095A23.011,23.011,0,0,0,79.386,21.011a14.394,14.394,0,0,0-18.6,8.394,79.948,79.948,0,0,0-5.019,24.63l-2.047,47.073v.014a44.7,44.7,0,0,0-.3,5.2,45.513,45.513,0,0,0,2.749,15.6l8.581,23.594H35.6a19.605,19.605,0,0,0-6.2,38.2,96.739,96.739,0,0,0,30.628,4.969H166.045a22.644,22.644,0,0,0,18.662-35.47ZM132.9,59.173h3.3l3.965,1.982,2.558,10.228a2.82,2.82,0,0,0,.324.784L154.18,90.714a40.168,40.168,0,0,1,5.728,20.687,5.713,5.713,0,0,1-1.378,3.745l-1.824-2.655L146.534,87.07a7.7,7.7,0,0,0-3.234-3.788L139.659,69.93a2.872,2.872,0,0,0-2.079-2.036l-8.03-2.008ZM102.343,65.89l4.605-6.141a11.52,11.52,0,0,0,8.484,2.195l7.9,7.9h0a2.91,2.91,0,0,0,1.335.756l9.876,2.468,2.58,9.458a7.7,7.7,0,0,0-3.465,2.152l-9.02-10.146a2.855,2.855,0,0,0-1.587-.91l-14.29-2.857-.1-.022a2.688,2.688,0,0,0-.565-.058h-5.756Zm30.793,41.435L118.022,99.77a2.9,2.9,0,0,0-2.2-.155l-6.166,2.054a30.106,30.106,0,0,1-1.011-19.543l1.493-5.22,10.84,2.169,10.682,12.013v0Zm-23.454.407,6.832-2.277,18.917,9.455v0a16.8,16.8,0,0,0,7.71,6.868l9.185,32.142-42.49-22.256a17.471,17.471,0,0,1-.155-23.936Zm38.6,11.092a2.871,2.871,0,0,0-1.856-1.939,11.03,11.03,0,0,1-7.5-9.473l-1.572-17.28a2,2,0,0,1,3.839-.925l10.286,25.72a2.808,2.808,0,0,0,.3.561l5.49,7.983-6.7,3.35ZM125.369,50.538a11.5,11.5,0,0,0-.263-2.454l3.141,1.428v6.1l-3.666,7.336-3.472-3.472a11.5,11.5,0,0,0,4.26-8.937ZM113.68,42.889l0,.169c-.014-.065-.025-.126-.043-.187Zm.176,7.649v-.36a22.774,22.774,0,0,0,2.047-5.019,5.756,5.756,0,0,1-2.047,11.135,5.684,5.684,0,0,1-1.925-.331A8.57,8.57,0,0,0,113.856,50.538ZM93.709,21.756a17.286,17.286,0,0,1,17.255,16.582,8.62,8.62,0,0,0-10.923-.46,11.516,11.516,0,0,0-9.21-4.609H77.425A17.3,17.3,0,0,1,93.709,21.756ZM76.439,39.025H90.83a5.764,5.764,0,0,1,5.756,5.756,2.878,2.878,0,0,0,5.756,0,2.878,2.878,0,1,1,5.756,0v5.756a2.882,2.882,0,0,1-2.878,2.878h-2.878V50.538H96.587V72.6l-2.878,3.839A14.458,14.458,0,0,1,82.2,82.2a2.882,2.882,0,0,1-2.878-2.878V75.046A11.187,11.187,0,0,0,84.786,67.8c.1,0,.191,0,.288,0H90.83V62.051H85.074a8.646,8.646,0,0,1-8.635-8.635Zm0,25.9a14.375,14.375,0,0,0,2.731,1.619,5.4,5.4,0,0,1-2.731,3.519ZM61.512,54.287a74.309,74.309,0,0,1,4.659-22.86,8.659,8.659,0,0,1,8.678-5.591,22.871,22.871,0,0,0-4.166,13.189v31.66a2.877,2.877,0,0,0-2.213,1.036L64,77.093a45.477,45.477,0,0,0-3.7,5.134Zm.061,65.67a39.892,39.892,0,0,1,6.847-39.18l3.612-4.335h1.529V79.32A8.646,8.646,0,0,0,82.2,87.955,20.242,20.242,0,0,0,98.314,79.9l2.59-3.454h3.378l-1.169,4.1a35.871,35.871,0,0,0,1.569,24.155,23.261,23.261,0,0,0-2.2,26.742,37.993,37.993,0,0,1-26.933,11.2H69.82Zm68.872,62.979H90.83V170.743l2.123.579a2.884,2.884,0,0,0,2.792-.741,8.4,8.4,0,0,1,9.714-1.58l25.292,12.646a.68.68,0,0,1-.306,1.288Zm35.6,0h-29.2a6.079,6.079,0,0,0,.036-.68,6.4,6.4,0,0,0-3.558-5.756l-25.289-12.646a14.159,14.159,0,0,0-15.064,1.507L74.22,160.244a62.4,62.4,0,0,0-24.267-1.723l-11.286,1.41.712,5.713,11.29-1.41A56.648,56.648,0,0,1,72.7,165.8l12.369,3.375v13.761H60.03a90.931,90.931,0,0,1-28.807-4.674A13.849,13.849,0,0,1,35.6,151.275H67.8a2.877,2.877,0,0,0,2.878-2.878h4.868a43.764,43.764,0,0,0,30.487-12.38l.025.025a2.987,2.987,0,0,0,.7.514l60.442,31.66,2.67-5.1-10.513-5.5-7.188-25.155,8.386-4.191,19.4,28.217a16.887,16.887,0,0,1-13.916,26.454Z" transform="translate(0 0)"/></g></svg>