<svg xmlns="http://www.w3.org/2000/svg" xmlns:xlink="http://www.w3.org/1999/xlink" width="261" height="64.136" viewBox="0 0 261 64.136">
  <defs>
    <linearGradient id="linear-gradient" x1="0.5" x2="0.5" y2="1" gradientUnits="objectBoundingBox">
      <stop offset="0" stop-color="#4e9cff"/>
      <stop offset="1" stop-color="#176ad4"/>
    </linearGradient>
  </defs>
  <g id="Player" transform="translate(-42 -518)">
    <g id="Group_2" data-name="Group 2" transform="translate(42 518)">
      <rect id="Rectangle_1" data-name="Rectangle 1" width="3" height="18.612" rx="1.5" transform="translate(0 22.335)" fill="url(#linear-gradient)"/>
      <rect id="Rectangle_1-2" data-name="Rectangle 1" width="3" height="24.816" rx="1.5" transform="translate(6 19.853)" fill="url(#linear-gradient)"/>
      <rect id="Rectangle_1-3" data-name="Rectangle 1" width="3" height="31.02" rx="1.5" transform="translate(12 16.13)" fill="url(#linear-gradient)"/>
      <rect id="Rectangle_1-4" data-name="Rectangle 1" width="3" height="27.487" rx="1.5" transform="translate(18 18.612)" fill="url(#linear-gradient)"/>
      <rect id="Rectangle_1-5" data-name="Rectangle 1" width="3" height="43.979" rx="1.5" transform="translate(24 9.926)" fill="url(#linear-gradient)"/>
      <rect id="Rectangle_1-6" data-name="Rectangle 1" width="3" height="49.477" rx="1.5" transform="translate(30 7.445)" fill="url(#linear-gradient)"/>
      <rect id="Rectangle_1-7" data-name="Rectangle 1" width="3" height="47.644" rx="1.5" transform="translate(36 8.686)" fill="url(#linear-gradient)"/>
      <rect id="Rectangle_1-8" data-name="Rectangle 1" width="3" height="36.649" rx="1.5" transform="translate(42 13.649)" fill="url(#linear-gradient)"/>
      <rect id="Rectangle_1-9" data-name="Rectangle 1" width="3" height="32.984" rx="1.5" transform="translate(48 16.13)" fill="url(#linear-gradient)"/>
      <rect id="Rectangle_1-10" data-name="Rectangle 1" width="3" height="27.487" rx="1.5" transform="translate(54 18.612)" fill="url(#linear-gradient)"/>
      <rect id="Rectangle_1-11" data-name="Rectangle 1" width="3" height="18.325" rx="1.5" transform="translate(60 22.335)" fill="url(#linear-gradient)"/>
      <rect id="Rectangle_1-12" data-name="Rectangle 1" width="3" height="32.984" rx="1.5" transform="translate(66 16.13)" fill="url(#linear-gradient)"/>
      <rect id="Rectangle_1-13" data-name="Rectangle 1" width="3" height="40.314" rx="1.5" transform="translate(72 12.408)" fill="url(#linear-gradient)"/>
      <rect id="Rectangle_1-14" data-name="Rectangle 1" width="3" height="51.309" rx="1.5" transform="translate(78 6.204)" fill="url(#linear-gradient)"/>
      <rect id="Rectangle_1-15" data-name="Rectangle 1" width="3" height="58.639" rx="1.5" transform="translate(84 2.482)" fill="url(#linear-gradient)"/>
      <rect id="Rectangle_1-16" data-name="Rectangle 1" width="3" height="64.136" rx="1.5" transform="translate(90)" fill="url(#linear-gradient)"/>
      <rect id="Rectangle_1-17" data-name="Rectangle 1" width="3" height="54.974" rx="1.5" transform="translate(96 4.963)" fill="url(#linear-gradient)"/>
      <rect id="Rectangle_1-18" data-name="Rectangle 1" width="3" height="45.812" rx="1.5" transform="translate(102 8.686)" fill="url(#linear-gradient)"/>
      <rect id="Rectangle_1-19" data-name="Rectangle 1" width="3" height="36.649" rx="1.5" transform="translate(108 13.649)" fill="url(#linear-gradient)"/>
      <rect id="Rectangle_1-20" data-name="Rectangle 1" width="3" height="32.984" rx="1.5" transform="translate(114 16.13)" fill="url(#linear-gradient)"/>
      <rect id="Rectangle_1-21" data-name="Rectangle 1" width="3" height="38.482" rx="1.5" transform="translate(120 12.408)" fill="url(#linear-gradient)"/>
      <rect id="Rectangle_1-22" data-name="Rectangle 1" width="3" height="32.984" rx="1.5" transform="translate(126 16.13)" fill="url(#linear-gradient)"/>
      <rect id="Rectangle_1-23" data-name="Rectangle 1" width="3" height="27.487" rx="1.5" transform="translate(132 18.612)" fill="url(#linear-gradient)"/>
      <rect id="Rectangle_1-24" data-name="Rectangle 1" width="3" height="25.655" rx="1.5" transform="translate(138 19.853)" fill="url(#linear-gradient)"/>
      <rect id="Rectangle_1-25" data-name="Rectangle 1" width="3" height="18.325" rx="1.5" transform="translate(144 22.335)" fill="url(#linear-gradient)"/>
    </g>
    <rect id="Rectangle_1-26" data-name="Rectangle 1" width="3" height="27.487" rx="1.5" transform="translate(192 538.157)" fill="#21386d" opacity="0.4"/>
    <rect id="Rectangle_1-27" data-name="Rectangle 1" width="3" height="23.822" rx="1.5" transform="translate(198 539.99)" fill="#21386d" opacity="0.4"/>
    <rect id="Rectangle_1-28" data-name="Rectangle 1" width="3" height="31.152" rx="1.5" transform="translate(204 536.325)" fill="#21386d" opacity="0.4"/>
    <rect id="Rectangle_1-29" data-name="Rectangle 1" width="3" height="34.817" rx="1.5" transform="translate(210 534.492)" fill="#21386d" opacity="0.4"/>
    <rect id="Rectangle_1-30" data-name="Rectangle 1" width="3" height="36.649" rx="1.5" transform="translate(216 532.66)" fill="#21386d" opacity="0.4"/>
    <rect id="Rectangle_1-31" data-name="Rectangle 1" width="3" height="40.314" rx="1.5" transform="translate(222 530.827)" fill="#21386d" opacity="0.4"/>
    <rect id="Rectangle_1-32" data-name="Rectangle 1" width="3" height="21.99" rx="1.5" transform="translate(228 539.99)" fill="#21386d" opacity="0.4"/>
    <rect id="Rectangle_1-33" data-name="Rectangle 1" width="3" height="23.822" rx="1.5" transform="translate(234 539.99)" fill="#21386d" opacity="0.4"/>
    <rect id="Rectangle_1-34" data-name="Rectangle 1" width="3" height="27.487" rx="1.5" transform="translate(240 538.157)" fill="#21386d" opacity="0.4"/>
    <rect id="Rectangle_1-35" data-name="Rectangle 1" width="3" height="36.649" rx="1.5" transform="translate(246 532.66)" fill="#21386d" opacity="0.4"/>
    <rect id="Rectangle_1-36" data-name="Rectangle 1" width="3" height="45.812" rx="1.5" transform="translate(252 528.995)" fill="#21386d" opacity="0.4"/>
    <rect id="Rectangle_1-37" data-name="Rectangle 1" width="3" height="47.644" rx="1.5" transform="translate(258 527.162)" fill="#21386d" opacity="0.4"/>
    <rect id="Rectangle_1-38" data-name="Rectangle 1" width="3" height="51.309" rx="1.5" transform="translate(264 525.33)" fill="#21386d" opacity="0.4"/>
    <rect id="Rectangle_1-39" data-name="Rectangle 1" width="3" height="42.147" rx="1.5" transform="translate(270 530.827)" fill="#21386d" opacity="0.4"/>
    <rect id="Rectangle_1-40" data-name="Rectangle 1" width="3" height="38.482" rx="1.5" transform="translate(276 532.66)" fill="#21386d" opacity="0.4"/>
    <rect id="Rectangle_1-41" data-name="Rectangle 1" width="3" height="36.649" rx="1.5" transform="translate(282 532.66)" fill="#21386d" opacity="0.4"/>
    <rect id="Rectangle_1-42" data-name="Rectangle 1" width="3" height="32.984" rx="1.5" transform="translate(288 534.492)" fill="#21386d" opacity="0.4"/>
    <rect id="Rectangle_1-43" data-name="Rectangle 1" width="3" height="27.487" rx="1.5" transform="translate(294 538.157)" fill="#21386d" opacity="0.4"/>
    <rect id="Rectangle_1-44" data-name="Rectangle 1" width="3" height="18.325" rx="1.5" transform="translate(300 541.822)" fill="#21386d" opacity="0.4"/>
  </g>
</svg>
